<mxfile host="Electron" agent="Mozilla/5.0 (X11; Linux x86_64) AppleWebKit/537.36 (KHTML, like Gecko) draw.io/25.0.2 Chrome/128.0.6613.186 Electron/32.2.7 Safari/537.36" version="25.0.2">
  <diagram name="Page-1" id="PYJ2EbEZMSt3SerLNBYG">
    <mxGraphModel dx="283" dy="288" grid="1" gridSize="10" guides="1" tooltips="1" connect="1" arrows="1" fold="1" page="1" pageScale="1" pageWidth="827" pageHeight="1169" background="#444444" math="0" shadow="0">
      <root>
        <mxCell id="0" />
        <mxCell id="1" parent="0" />
        <mxCell id="6Kz1UC2CJ3yodjOeMeaO-1" value="&lt;div style=&quot;&quot;&gt;S0&lt;/div&gt;" style="rounded=1;whiteSpace=wrap;html=1;fontFamily=monospace;align=center;spacing=7;verticalAlign=middle;spacingTop=0;fillColor=#333333;" parent="1" vertex="1">
          <mxGeometry x="20" y="20" width="36" height="30" as="geometry" />
        </mxCell>
        <mxCell id="6Kz1UC2CJ3yodjOeMeaO-2" style="edgeStyle=orthogonalEdgeStyle;rounded=0;orthogonalLoop=1;jettySize=auto;html=1;fontFamily=monospace;fontSize=12;fontColor=default;labelBackgroundColor=#444444;resizable=0;" parent="1" source="6Kz1UC2CJ3yodjOeMeaO-4" target="6Kz1UC2CJ3yodjOeMeaO-1" edge="1">
          <mxGeometry relative="1" as="geometry" />
        </mxCell>
        <mxCell id="6Kz1UC2CJ3yodjOeMeaO-3" value="B =" style="edgeLabel;html=1;align=center;verticalAlign=middle;resizable=0;points=[];rounded=0;strokeColor=default;spacing=10;fontFamily=monospace;fontSize=12;fontColor=default;labelBackgroundColor=#444444;fillColor=default;gradientColor=none;" parent="6Kz1UC2CJ3yodjOeMeaO-2" vertex="1" connectable="0">
          <mxGeometry x="-0.1364" y="2" relative="1" as="geometry">
            <mxPoint y="-2" as="offset" />
          </mxGeometry>
        </mxCell>
        <mxCell id="6Kz1UC2CJ3yodjOeMeaO-4" value="&lt;div style=&quot;&quot;&gt;S3&lt;/div&gt;" style="rounded=1;whiteSpace=wrap;html=1;fontFamily=monospace;align=center;spacing=7;verticalAlign=middle;spacingTop=0;fillColor=#333333;strokeColor=default;fontSize=12;fontColor=default;" parent="1" vertex="1">
          <mxGeometry x="20" y="100" width="36" height="30" as="geometry" />
        </mxCell>
        <mxCell id="s0YxvNO4TdeqY1G3PoWJ-1" style="edgeStyle=orthogonalEdgeStyle;rounded=0;orthogonalLoop=1;jettySize=auto;html=1;elbow=horizontal;" parent="1" source="6Kz1UC2CJ3yodjOeMeaO-4" target="6Kz1UC2CJ3yodjOeMeaO-4" edge="1">
          <mxGeometry relative="1" as="geometry">
            <Array as="points">
              <mxPoint x="50" y="150" />
            </Array>
          </mxGeometry>
        </mxCell>
        <mxCell id="s0YxvNO4TdeqY1G3PoWJ-4" value="B =" style="edgeLabel;html=1;align=center;verticalAlign=middle;resizable=0;points=[];rounded=0;strokeColor=default;spacingTop=0;spacing=10;fontFamily=monospace;fontSize=12;fontColor=default;fillColor=default;labelBackgroundColor=#444444;gradientColor=none;" parent="s0YxvNO4TdeqY1G3PoWJ-1" vertex="1" connectable="0">
          <mxGeometry x="0.3155" y="-1" relative="1" as="geometry">
            <mxPoint x="2" as="offset" />
          </mxGeometry>
        </mxCell>
        <mxCell id="s0YxvNO4TdeqY1G3PoWJ-6" style="edgeStyle=orthogonalEdgeStyle;rounded=0;orthogonalLoop=1;jettySize=auto;html=1;fontFamily=monospace;fontSize=12;fontColor=default;labelBackgroundColor=#444444;resizable=0;" parent="1" source="s0YxvNO4TdeqY1G3PoWJ-5" target="6Kz1UC2CJ3yodjOeMeaO-1" edge="1">
          <mxGeometry relative="1" as="geometry" />
        </mxCell>
        <mxCell id="s0YxvNO4TdeqY1G3PoWJ-8" value="b" style="edgeLabel;html=1;align=center;verticalAlign=middle;resizable=0;points=[];rounded=0;strokeColor=default;spacing=10;fontFamily=monospace;fontSize=12;fontColor=default;labelBackgroundColor=#444444;fillColor=default;gradientColor=none;" parent="s0YxvNO4TdeqY1G3PoWJ-6" vertex="1" connectable="0">
          <mxGeometry x="-0.0141" y="2" relative="1" as="geometry">
            <mxPoint as="offset" />
          </mxGeometry>
        </mxCell>
        <mxCell id="s0YxvNO4TdeqY1G3PoWJ-5" value="&lt;div style=&quot;&quot;&gt;S2&lt;/div&gt;" style="rounded=1;whiteSpace=wrap;html=1;fontFamily=monospace;align=center;spacing=7;verticalAlign=middle;spacingTop=0;fillColor=#333333;" parent="1" vertex="1">
          <mxGeometry x="100" y="20" width="36" height="30" as="geometry" />
        </mxCell>
        <mxCell id="H6jik_KTtSSORr0fecEw-2" style="edgeStyle=orthogonalEdgeStyle;rounded=0;orthogonalLoop=1;jettySize=auto;html=1;fontFamily=monospace;fontSize=12;fontColor=default;labelBackgroundColor=#444444;resizable=0;curved=1;" parent="1" source="H6jik_KTtSSORr0fecEw-1" target="6Kz1UC2CJ3yodjOeMeaO-1" edge="1">
          <mxGeometry relative="1" as="geometry">
            <Array as="points">
              <mxPoint x="110" y="40" />
            </Array>
          </mxGeometry>
        </mxCell>
        <mxCell id="H6jik_KTtSSORr0fecEw-3" value="E = b" style="edgeLabel;html=1;align=center;verticalAlign=middle;resizable=0;points=[];rounded=0;strokeColor=default;spacing=10;fontFamily=monospace;fontSize=12;fontColor=default;labelBackgroundColor=#444444;fillColor=default;gradientColor=none;" parent="H6jik_KTtSSORr0fecEw-2" vertex="1" connectable="0">
          <mxGeometry x="-0.7742" y="-1" relative="1" as="geometry">
            <mxPoint x="-1" y="2" as="offset" />
          </mxGeometry>
        </mxCell>
        <mxCell id="H6jik_KTtSSORr0fecEw-1" value="&lt;div style=&quot;&quot;&gt;S1&lt;/div&gt;" style="rounded=1;whiteSpace=wrap;html=1;fontFamily=monospace;align=center;spacing=7;verticalAlign=middle;spacingTop=0;fillColor=#333333;" parent="1" vertex="1">
          <mxGeometry x="100" y="100" width="36" height="30" as="geometry" />
        </mxCell>
        <mxCell id="vlwQ_Vl35bB_qtMKfu1F-1" style="rounded=0;orthogonalLoop=1;jettySize=auto;html=1;fontFamily=monospace;fontSize=12;fontColor=default;labelBackgroundColor=#444444;resizable=0;" edge="1" parent="1" source="s0YxvNO4TdeqY1G3PoWJ-5" target="6Kz1UC2CJ3yodjOeMeaO-4">
          <mxGeometry relative="1" as="geometry">
            <mxPoint x="113" y="60" as="sourcePoint" />
            <mxPoint x="63" y="110" as="targetPoint" />
          </mxGeometry>
        </mxCell>
        <mxCell id="vlwQ_Vl35bB_qtMKfu1F-2" value="b" style="edgeLabel;html=1;align=center;verticalAlign=middle;resizable=0;points=[];rounded=0;strokeColor=default;spacing=10;fontFamily=monospace;fontSize=12;fontColor=default;labelBackgroundColor=#444444;fillColor=default;gradientColor=none;" vertex="1" connectable="0" parent="vlwQ_Vl35bB_qtMKfu1F-1">
          <mxGeometry x="-0.374" y="-10" relative="1" as="geometry">
            <mxPoint y="13" as="offset" />
          </mxGeometry>
        </mxCell>
      </root>
    </mxGraphModel>
  </diagram>
</mxfile>
